<svg width="21" height="25" viewBox="0 0 21 25" fill="none" xmlns="http://www.w3.org/2000/svg">
<path d="M10.6484 5.47114V8.75068L15.5292 4.37796L10.6484 0.00524902V3.28479C5.25506 3.28479 0.886719 7.19836 0.886719 12.0302C0.886719 13.7465 1.44801 15.3425 2.39977 16.6872L4.18128 15.0911C3.63218 14.1838 3.32713 13.1343 3.32713 12.0302C3.32713 8.41179 6.60949 5.47114 10.6484 5.47114ZM18.897 7.37327L17.1155 8.96931C17.6524 9.88758 17.9696 10.9261 17.9696 12.0302C17.9696 15.6486 14.6873 18.5893 10.6484 18.5893V15.3097L5.76754 19.6825L10.6484 24.0552V20.7756C16.0417 20.7756 20.41 16.8621 20.41 12.0302C20.41 10.3139 19.8487 8.71788 18.897 7.37327Z" fill="#4F1BA3"/>
</svg>
