<svg width="19" height="20" viewBox="0 0 19 20" fill="none" xmlns="http://www.w3.org/2000/svg">
<path d="M13.2921 0.680706C12.9568 0.530966 12.6467 0.577759 12.3617 0.821087C12.0768 1.06441 11.9343 1.40133 11.9343 1.83183C11.9343 2.03773 11.9889 2.22004 12.0982 2.37876C12.2069 2.53823 12.345 2.65541 12.5126 2.73028C13.8536 3.32924 14.9307 4.28383 15.7441 5.59406C16.5567 6.90429 16.963 8.38297 16.963 10.0301C16.963 11.6773 16.5567 13.1559 15.7441 14.4662C14.9307 15.7764 13.8536 16.731 12.5126 17.33C12.3282 17.4048 12.1857 17.5265 12.0852 17.6949C11.9846 17.8634 11.9343 18.0506 11.9343 18.2565C11.9343 18.6683 12.0768 18.9958 12.3617 19.2391C12.6467 19.4825 12.9568 19.5293 13.2921 19.3795C15.0018 18.6121 16.3763 17.3861 17.4156 15.7015C18.4549 14.0169 18.9745 12.1265 18.9745 10.0301C18.9745 7.93375 18.4549 6.04328 17.4156 4.3587C16.3763 2.67412 15.0018 1.44813 13.2921 0.680706ZM1.87684 6.63288C1.59188 6.63288 1.35318 6.74069 1.16075 6.95632C0.967645 7.1712 0.871094 7.43774 0.871094 7.75593V12.2481C0.871094 12.5663 0.967645 12.8333 1.16075 13.0489C1.35318 13.2638 1.59188 13.3712 1.87684 13.3712H4.89408L8.21304 17.0773C8.53152 17.4329 8.89594 17.5126 9.30628 17.3165C9.7173 17.1196 9.9228 16.7684 9.9228 16.2631V3.74102C9.9228 3.23565 9.7173 2.88488 9.30628 2.68872C8.89594 2.49182 8.53152 2.57118 8.21304 2.92681L4.89408 6.63288H1.87684ZM11.9343 5.50983V14.5504C12.6886 14.1573 13.2961 13.549 13.7567 12.7254C14.218 11.9019 14.4487 10.9941 14.4487 10.002C14.4487 9.01001 14.218 8.11157 13.7567 7.30671C13.2961 6.50186 12.6886 5.9029 11.9343 5.50983Z" fill="#4F1BA3"/>
</svg>
